<svg xmlns="http://www.w3.org/2000/svg" viewBox="0 0 156.05 159.79"><defs><style>.cls-1{fill:#fff;}</style></defs><g id="Layer_2" data-name="Layer 2"><g id="Layer_1-2" data-name="Layer 1"><path class="cls-1" d="M17.58,46.34V22.16H5.27A5.28,5.28,0,0,0,0,27.43V48.94a9.48,9.48,0,0,1,6.5-2.6Z"/><path class="cls-1" d="M42.75,41.19v5.15H78.38l12,24.72h52.21V41.19a6.51,6.51,0,0,0-6.5-6.5H49.24A6.5,6.5,0,0,0,42.75,41.19Z"/><path class="cls-1" d="M112.57,0H27.08a6.51,6.51,0,0,0-6.5,6.5V46.34H39.75V41.19a9.53,9.53,0,0,1,9.49-9.5h69.83V6.5A6.51,6.51,0,0,0,112.57,0Z"/><path class="cls-1" d="M156.05,27.43a5.27,5.27,0,0,0-5.26-5.27H122.07v9.53h14.05a9.53,9.53,0,0,1,9.5,9.5V71.06h3.94a9.41,9.41,0,0,1,6.49,2.6Z"/><path class="cls-1" d="M149.56,74.06h-61l-.82-1.69-11.21-23H6.5A6.51,6.51,0,0,0,0,55.84v97.45a6.51,6.51,0,0,0,6.5,6.5H149.56a6.5,6.5,0,0,0,6.49-6.5V80.56A6.5,6.5,0,0,0,149.56,74.06ZM39.75,143.44a23.6,23.6,0,1,1,23.59-23.59A23.59,23.59,0,0,1,39.75,143.44Zm101.85-7.73H88.16a1.5,1.5,0,0,1,0-3H141.6a1.5,1.5,0,0,1,0,3Zm0-23.22H88.16a1.5,1.5,0,0,1,0-3H141.6a1.5,1.5,0,0,1,0,3Z"/></g></g></svg>