<svg xmlns="http://www.w3.org/2000/svg" viewBox="0 0 161.67 119.89"><defs><style>.cls-1{fill:#fff;}</style></defs><g id="Layer_2" data-name="Layer 2"><g id="Layer_1-2" data-name="Layer 1"><path class="cls-1" d="M1.85,3.9A9.53,9.53,0,0,1,9.5,0H152.17a9.55,9.55,0,0,1,7.65,3.9l-79,59.19Z"/><path class="cls-1" d="M99.05,55.69l62.59-46.9c0,.23,0,.47,0,.71v93.11Z"/><path class="cls-1" d="M9.5,119.89a9.51,9.51,0,0,1-9.5-9.5v-1.53l66.79-50,14,10.53,14-10.53,66.79,50.05v1.53a9.51,9.51,0,0,1-9.5,9.5Z"/><path class="cls-1" d="M0,9.5C0,9.26,0,9,0,8.79l62.59,46.9L0,102.61Z"/></g></g></svg>