<svg xmlns="http://www.w3.org/2000/svg" viewBox="0 0 161.62 120.18"><defs><style>.cls-1{fill:#fff;}</style></defs><g id="Layer_2" data-name="Layer 2"><g id="Layer_1-2" data-name="Layer 1"><path class="cls-1" d="M80.81,71A15.06,15.06,0,0,1,75,70L2.42,38.08c-3.23-1.42-3.23-3.72,0-5.14L75,1.06a16.67,16.67,0,0,1,11.7,0L159.2,32.94c3.22,1.42,3.22,3.72,0,5.14L86.66,70A15.09,15.09,0,0,1,80.81,71Z"/><polygon class="cls-1" points="153.64 97.89 153.64 49.73 149.09 52.73 149.09 97.89 142.76 111.57 151.36 120.17 159.97 111.57 153.64 97.89"/><path class="cls-1" d="M86.91,80.07a17.32,17.32,0,0,1-12.2,0L18,55.14V91.36l57,25a16.67,16.67,0,0,0,11.7,0L144,91.21V55Z"/></g></g></svg>