<svg xmlns="http://www.w3.org/2000/svg" viewBox="0 0 166.67 164.33"><defs><style>.cls-1{fill:#fff;}</style></defs><g id="Layer_2" data-name="Layer 2"><g id="Layer_1-2" data-name="Layer 1"><path class="cls-1" d="M73.63,81V77.41a6.6,6.6,0,0,1,6.58-6.58h6.58a6.6,6.6,0,0,1,6.58,6.58V81h73.3V50a13.07,13.07,0,0,0-13-13H140.43V8.22A8.25,8.25,0,0,0,132.21,0H34.46a8.25,8.25,0,0,0-8.23,8.22V37H13A13.06,13.06,0,0,0,0,50V81ZM45.27,17.81a5.49,5.49,0,0,1,5.48-5.48h65.17a5.5,5.5,0,0,1,5.48,5.48V37H45.27Z"/><path class="cls-1" d="M93.37,89.33v.42a6.6,6.6,0,0,1-6.58,6.58H80.21a6.6,6.6,0,0,1-6.58-6.58v-.42H0v62a13.06,13.06,0,0,0,13,13H153.64a13.07,13.07,0,0,0,13-13v-62Z"/></g></g></svg>