<svg xmlns="http://www.w3.org/2000/svg" viewBox="0 0 166.43 146.89"><defs><style>.cls-1{fill:#fff;}</style></defs><g id="Layer_2" data-name="Layer 2"><g id="Layer_1-2" data-name="Layer 1"><polygon class="cls-1" points="89.68 26.58 85.66 19.61 85.66 0 80.43 0 80.43 19.61 76.4 26.58 69.76 38.08 83.04 38.08 96.32 38.08 89.68 26.58"/><path class="cls-1" d="M166,114.55l-9-51a26.11,26.11,0,0,0-30.16-21.12l-.58.1H40.13l-.59-.1A26.1,26.1,0,0,0,9.39,63.56l-9,51a26.11,26.11,0,0,0,21.11,30.16l10.12,1.78a26.11,26.11,0,0,0,30.16-21.11l.33-1.88v.78c0-.37,0-.73.05-1.1l.93-5.27a21.17,21.17,0,0,1,11.83-13H91.5a21.15,21.15,0,0,1,11.82,13l.93,5.27c0,.37.06.73.06,1.1v-.78l.33,1.88a26.11,26.11,0,0,0,30.16,21.11l10.11-1.78A26.11,26.11,0,0,0,166,114.55ZM55.55,84.73H48.21v7.34a5,5,0,0,1-10,0V84.73H30.87a5,5,0,0,1,0-10h7.34V67.39a5,5,0,0,1,10,0v7.34h7.34a5,5,0,0,1,0,10Zm55.28,0a5,5,0,1,1,5-5A5,5,0,0,1,110.83,84.69Zm12.38,12.38a5,5,0,1,1,5-5A5,5,0,0,1,123.21,97.07Zm0-24.76a5,5,0,1,1,5-5A5,5,0,0,1,123.21,72.31Zm12.38,12.38a5,5,0,1,1,5-5A5,5,0,0,1,135.59,84.69Z"/></g></g></svg>