<svg xmlns="http://www.w3.org/2000/svg" viewBox="0 0 166.67 166.67"><defs><style>.cls-1{fill:#fff;}</style></defs><g id="Layer_2" data-name="Layer 2"><g id="Layer_1-2" data-name="Layer 1"><path class="cls-1" d="M83.33,0a83.34,83.34,0,1,0,83.34,83.33A83.33,83.33,0,0,0,83.33,0ZM79.9,135.24c-8.36,0-14.93-6.45-14.93-14.1s6.75-13.79,14.81-13.79c8.24,0,15,6.51,15,14.09S88,135.24,79.9,135.24Zm23.95-57.88C98.3,82.5,91.49,85.07,91.49,93.13c0,3.34.06,4.18.3,5.14l-24,.06a30.73,30.73,0,0,1-.12-4.42c0-10.82,5.8-17.74,17-25.51,2.21-1.55,4.48-4.06,4.48-7.11,0-5-3.35-8.06-9.5-8.06A18.14,18.14,0,0,0,63.35,63.56l-9-18.81C55.89,42.3,61,31.43,81.09,31.43c19.12,0,31.24,14.27,31.24,25.2C112.33,66.07,110.66,71.21,103.85,77.36Z"/></g></g></svg>