<svg xmlns="http://www.w3.org/2000/svg" viewBox="0 0 162.67 162.61"><defs><style>.cls-1{fill:#fff;}</style></defs><g id="Layer_2" data-name="Layer 2"><g id="Layer_1-2" data-name="Layer 1"><path class="cls-1" d="M16.92,16.4,44,80.62s-7.83,11.91-11.28,18S31.49,119,46.06,122.14h93.21s7.31-.94,7.31-7.83a8.18,8.18,0,0,0-7-8.46H48s-1,.1-.29-.94,9.59-15.3,9.59-15.3h61.77s9.35-.68,13.52-8.88l28.83-51.91s2.71-5.22,0-8.45-4.18-4-5.64-4H34.67L29.76,4.91S27.68,0,22.56,0H7.62S0,1,0,8.25,5.33,16.4,7.62,16.4Z"/><circle class="cls-1" cx="48.88" cy="146.63" r="15.98"/><circle class="cls-1" cx="130.23" cy="146.63" r="15.98"/></g></g></svg>