<svg xmlns="http://www.w3.org/2000/svg" viewBox="0 0 129 166.03"><defs><style>.cls-1{fill:#fff;}</style></defs><g id="Layer_2" data-name="Layer 2"><g id="Layer_1-2" data-name="Layer 1"><path class="cls-1" d="M106.81,34.19H129L94.81,0V22.19A12,12,0,0,0,106.81,34.19Z"/><path class="cls-1" d="M106.81,39.19a17,17,0,0,1-17-17V0H12A12,12,0,0,0,0,12V154a12,12,0,0,0,12,12H117a12,12,0,0,0,12-12V39.19ZM36.6,21.53A10.34,10.34,0,1,1,26.27,31.86,10.34,10.34,0,0,1,36.6,21.53Zm0,21.89a21.9,21.9,0,0,1,21.9,21.9H14.71A21.9,21.9,0,0,1,36.6,43.42ZM107,141.69H21a2,2,0,0,1,0-4h86a2,2,0,0,1,0,4Zm0-25H21a2,2,0,0,1,0-4h86a2,2,0,0,1,0,4Zm0-25H21a2,2,0,0,1,0-4h86a2,2,0,0,1,0,4Z"/></g></g></svg>