<svg xmlns="http://www.w3.org/2000/svg" viewBox="0 0 166.67 166.67"><defs><style>.cls-1{fill:#fff;}</style></defs><g id="Layer_2" data-name="Layer 2"><g id="Layer_1-2" data-name="Layer 1"><path class="cls-1" d="M166.67,104.72V62H147.53a66.74,66.74,0,0,0-3.68-8.89l13.53-13.53L127.14,9.29,113.61,22.82a67.86,67.86,0,0,0-8.89-3.68V0H62V19.14a66.74,66.74,0,0,0-8.89,3.68L39.53,9.29,9.29,39.53,22.82,53.06A66.74,66.74,0,0,0,19.14,62H0v42.77H19.14a67.86,67.86,0,0,0,3.68,8.89L9.29,127.14l30.24,30.24,13.53-13.53A66.74,66.74,0,0,0,62,147.53v19.14h42.77V147.53a67.86,67.86,0,0,0,8.89-3.68l13.53,13.53,30.24-30.24-13.53-13.53a67.86,67.86,0,0,0,3.68-8.89ZM83.33,119.79a36.46,36.46,0,1,1,36.46-36.46A36.46,36.46,0,0,1,83.33,119.79Z"/></g></g></svg>