<?xml version="1.0" encoding="utf-8"?>
<svg version="1.1" id="Layer_1"
xmlns="http://www.w3.org/2000/svg"
xmlns:xlink="http://www.w3.org/1999/xlink"
width="20px" height="41px"
xml:space="preserve">
<g id="PathID_55" transform="matrix(1, 0, 0, 1, 9.75, 20.45)">
<path style="fill:#FFFFFF;fill-opacity:1" d="M7.15 -12.7L7.25 -11.25L6.6 -5.75L6.6 -3.85L6.05 -2.1L5.75 -0.3L5.8 3.45L4.9 8.9L4.95 10.75L4.35 14.4L4.25 16.25L3.2 17.7L1.2 17.7L-0.7 17.95L-1.75 17.9L-3.7 16.2L-5.2 13.75L-5.65 12.6L-5.85 8.8L-6.3 7L-6.3 3.15L-6.65 1.3L-6.5 -0.65L-7.25 -8.15L-7.25 -10.05L-5.2 -12.55L-4.1 -13.3L-3.3 -14.75L-2.25 -15.9L0.05 -17.85L3.4 -17.15L7.15 -12.7M3.65 -5.25L0.2 -10.2L-0.05 -10.2Q-0.4 -10.2 -3.65 -5.25L-3.65 -4.7Q-0.35 0.25 0.05 0.25Q0.65 -0.2 3.65 -4.85L3.65 -5.25" />
<path style="fill:#000000;fill-opacity:1" d="M9.6 -13.6L9.75 -11.1L9.1 -5.5L9.1 -3.4L8.5 -1.45L8.25 -0.05L8.3 3.8L7.4 9.2L7.45 10.95L6.85 14.8L6.75 17.2L4.45 20.3L1.35 20.25L-0.65 20.5L-2.75 20.4L-5.6 17.95L-7.55 14.75L-8.15 13.25L-8.35 9.2L-8.8 7.35L-8.8 3.45L-9.15 1.5L-9 -0.6L-9.75 -7.95L-9.7 -10.95L-7 -14.3L-6 -14.95L-5.4 -16.15L-3.95 -17.7L-0.65 -20.45L4.7 -19.35L9.6 -13.6M3.4 -17.15L0.05 -17.85L-2.25 -15.9L-3.3 -14.75L-4.1 -13.3L-5.2 -12.55L-7.25 -10.05L-7.25 -8.15L-6.5 -0.65L-6.65 1.3L-6.3 3.15L-6.3 7L-5.85 8.8L-5.65 12.6L-5.2 13.75L-3.7 16.2L-1.75 17.9L-0.7 17.95L1.2 17.7L3.2 17.7L4.25 16.25L4.35 14.4L4.95 10.75L4.9 8.9L5.8 3.45L5.75 -0.3L6.05 -2.1L6.6 -3.85L6.6 -5.75L7.25 -11.25L7.15 -12.7L3.4 -17.15M3.65 -4.85Q0.65 -0.2 0.05 0.25Q-0.35 0.25 -3.65 -4.7L-3.65 -5.25Q-0.4 -10.2 -0.05 -10.2L0.2 -10.2L3.65 -5.25L3.65 -4.85" />
</g>
</svg>
